<svg width="370" height="96" viewBox="0 0 370 96" fill="none" xmlns="http://www.w3.org/2000/svg">
<path d="M100.51 70.3387C100.003 59.0212 91.9775 50.1299 80.966 47.999C81.6411 47.857 81.687 46.7922 82.362 46.6028C91.8968 43.6669 99.1136 35.0124 99.1136 24.2632C99.1136 17.9179 96.0574 11.7703 92.1338 7.50848C87.9148 3.00991 81.9637 0.527344 75.3822 0.527344C74.9181 0.527344 0 0.527344 0 0.527344V95.4707H73.9862C73.9862 95.4707 75.2134 95.4707 75.3822 95.4707C75.0446 95.4707 75.7197 95.4707 75.3822 95.4707C82.3856 95.4707 89.0576 93.1302 93.5297 88.4896C93.9094 88.1108 94.5882 87.5196 94.9257 87.0934C94.8413 87.1881 95.0101 86.9987 94.9257 87.0934C95.6415 86.3953 94.9434 87.0934 95.6415 86.3953C96.0097 86.0271 96.9112 84.5851 97.0377 84.3009C97.2487 83.9695 97.5067 83.2362 97.7176 82.9047C99.7849 79.3532 100.51 76.0914 100.51 71.7349C100.51 71.4034 100.552 70.6701 100.51 70.3387ZM53.0467 60.5651H47.4628V57.7726H53.0467V60.5651ZM53.0467 38.2255H47.4628V35.433H53.0467V38.2255Z" fill="#191919"/>
<path d="M203.725 55.1257C203.725 55.1257 203.725 54.8416 203.725 54.7469C203.519 52.4739 203.024 50.2957 202.281 48.2595C202.199 48.0701 202.157 47.8806 202.075 47.6912C201.992 47.4071 201.869 47.1704 201.745 46.9336C198.321 38.7888 191.061 33.1064 182.646 33.1064H181.326C181.326 33.1064 181.284 33.1064 181.243 33.1064C181.119 33.1064 156.823 33.1064 156.493 33.0591H156.328V29.9337H203.849C203.849 29.9337 203.849 24.2987 203.849 24.2514C203.849 24.204 203.849 24.2514 203.849 24.204V23.9199C203.766 20.2263 202.941 16.7222 201.415 13.6442C200.425 11.5607 199.105 9.61919 197.578 7.91447C197.578 7.91447 197.537 7.86711 197.496 7.81976C193.907 3.93679 189.081 1.28499 183.677 0.669398C182.852 0.574691 182.027 0.527344 181.202 0.527344C181.119 0.527344 126.297 0.669398 126.297 0.669398H125.885C119.491 0.669398 113.716 3.46325 109.59 7.96181C109.59 7.96181 109.549 8.00917 109.508 8.05652C108.435 9.24035 107.487 10.5662 106.662 11.9395C104.558 15.7278 103.32 20.179 103.32 25.009V34.9532C103.32 38.1259 103.857 41.1091 104.805 43.903C105.135 44.8027 105.465 45.655 105.878 46.5074C109.467 54.1313 116.438 59.2928 124.523 59.2928C124.523 59.2928 150.099 59.4349 150.346 59.4349V62.5128H103.609V71.1311C103.609 84.5795 113.097 95.4707 124.812 95.4707H182.563C194.278 95.4707 203.766 84.5795 203.766 71.1311V56.8304C203.766 56.4042 203.684 55.2678 203.684 55.1257H203.725Z" fill="#191919"/>
<path d="M232.701 13.8519C232.701 15.8625 232.34 17.5463 231.62 18.9035C230.916 20.2606 229.869 21.2826 228.478 21.9696C227.105 22.6565 225.396 23 223.351 23H218.928V5.0557H223.904C225.798 5.0557 227.398 5.39079 228.705 6.06098C230.011 6.73117 231 7.7197 231.67 9.02656C232.357 10.3334 232.701 11.9419 232.701 13.8519ZM231.193 13.9022C231.193 12.21 230.916 10.8109 230.363 9.70513C229.81 8.58256 228.973 7.74483 227.85 7.19192C226.728 6.62226 225.32 6.33743 223.628 6.33743H220.386V21.7183H223.251C225.915 21.7183 227.9 21.0732 229.207 19.7831C230.531 18.4762 231.193 16.5159 231.193 13.9022ZM241.546 9.37841C242.702 9.37841 243.657 9.64649 244.411 10.1826C245.181 10.702 245.759 11.4225 246.145 12.344C246.547 13.2655 246.748 14.3294 246.748 15.5358V16.4908H237.198C237.198 18.2835 237.608 19.6491 238.429 20.5873C239.267 21.5256 240.448 21.9947 241.973 21.9947C242.811 21.9947 243.539 21.9277 244.159 21.7937C244.779 21.6596 245.458 21.4251 246.195 21.09V22.3968C245.525 22.6984 244.863 22.9162 244.21 23.0503C243.556 23.1843 242.794 23.2513 241.923 23.2513C240.599 23.2513 239.468 22.9749 238.53 22.422C237.608 21.8691 236.904 21.0816 236.419 20.0595C235.949 19.0208 235.715 17.8144 235.715 16.4405C235.715 15.0666 235.941 13.8519 236.393 12.7964C236.846 11.7408 237.508 10.9115 238.379 10.3083C239.25 9.68838 240.306 9.37841 241.546 9.37841ZM241.546 10.5848C240.306 10.5848 239.309 10.9952 238.555 11.8162C237.801 12.6205 237.357 13.7849 237.223 15.3096H245.265C245.265 14.3713 245.131 13.5503 244.863 12.8466C244.595 12.1429 244.184 11.59 243.632 11.1879C243.095 10.7858 242.4 10.5848 241.546 10.5848ZM258.755 19.4564C258.755 20.2606 258.554 20.9475 258.152 21.5172C257.75 22.0869 257.163 22.5225 256.393 22.8241C255.622 23.1089 254.684 23.2513 253.578 23.2513C252.656 23.2513 251.835 23.1675 251.115 23C250.394 22.8325 249.783 22.6314 249.28 22.3968V21.0146C249.883 21.3162 250.562 21.5675 251.316 21.7685C252.07 21.9528 252.832 22.045 253.603 22.045C254.943 22.045 255.907 21.8272 256.493 21.3915C257.079 20.9392 257.373 20.3276 257.373 19.5569C257.373 19.0543 257.23 18.6438 256.945 18.3254C256.677 17.9903 256.267 17.6971 255.714 17.4458C255.178 17.1777 254.508 16.9097 253.703 16.6416C252.882 16.3568 252.154 16.0719 251.517 15.7871C250.88 15.4855 250.386 15.1085 250.034 14.6561C249.682 14.2038 249.506 13.5838 249.506 12.7964C249.506 11.7241 249.942 10.8863 250.813 10.2832C251.684 9.68 252.849 9.37841 254.307 9.37841C255.111 9.37841 255.856 9.45381 256.543 9.6046C257.247 9.75539 257.884 9.95645 258.453 10.2078L257.951 11.389C257.616 11.2382 257.239 11.1041 256.82 10.9869C256.401 10.8528 255.974 10.7523 255.538 10.6853C255.102 10.6183 254.667 10.5848 254.231 10.5848C253.176 10.5848 252.355 10.7691 251.768 11.1377C251.182 11.5063 250.889 12.0424 250.889 12.7461C250.889 13.2823 251.023 13.7095 251.291 14.0278C251.576 14.3294 251.986 14.5891 252.522 14.8069C253.075 15.0248 253.737 15.2761 254.508 15.5609C255.295 15.829 256.007 16.1138 256.644 16.4154C257.297 16.717 257.808 17.1023 258.177 17.5715C258.562 18.0406 258.755 18.6689 258.755 19.4564ZM263.524 9.62973V23H262.117V9.62973H263.524ZM262.821 4.67871C263.139 4.67871 263.382 4.77924 263.549 4.9803C263.717 5.1646 263.801 5.4243 263.801 5.75939C263.801 6.11124 263.717 6.3877 263.549 6.58875C263.382 6.77305 263.139 6.86521 262.821 6.86521C262.519 6.86521 262.284 6.77305 262.117 6.58875C261.949 6.3877 261.866 6.11124 261.866 5.75939C261.866 5.4243 261.949 5.1646 262.117 4.9803C262.284 4.77924 262.519 4.67871 262.821 4.67871ZM272.859 9.37841C273.914 9.37841 274.786 9.58785 275.473 10.0067C276.16 10.4088 276.713 10.9617 277.131 11.6654H277.232L277.433 9.62973H278.589V23.4272C278.589 24.6001 278.388 25.597 277.986 26.418C277.584 27.2557 276.955 27.9008 276.101 28.3531C275.263 28.8055 274.166 29.0317 272.809 29.0317C271.82 29.0317 270.932 28.9479 270.145 28.7804C269.374 28.6128 268.679 28.395 268.059 28.1269V26.7447C268.478 26.9457 268.938 27.13 269.441 27.2976C269.944 27.4651 270.48 27.5908 271.049 27.6746C271.636 27.7583 272.247 27.8002 272.884 27.8002C274.358 27.8002 275.439 27.4149 276.126 26.6442C276.83 25.8734 277.182 24.8346 277.182 23.5278V22.7235C277.182 22.3717 277.182 22.0198 277.182 21.668C277.198 21.2994 277.215 20.9559 277.232 20.6376H277.157C276.771 21.4921 276.202 22.1455 275.448 22.5979C274.694 23.0335 273.772 23.2513 272.683 23.2513C270.957 23.2513 269.609 22.6649 268.637 21.4921C267.665 20.3192 267.179 18.6354 267.179 16.4405C267.179 14.9829 267.397 13.7263 267.833 12.6707C268.268 11.6152 268.905 10.8026 269.743 10.2329C270.597 9.66324 271.636 9.37841 272.859 9.37841ZM273.01 10.6099C272.038 10.6099 271.225 10.8445 270.572 11.3136C269.935 11.766 269.458 12.4278 269.139 13.299C268.821 14.1535 268.662 15.2007 268.662 16.4405C268.662 18.2668 269.022 19.6574 269.743 20.6125C270.463 21.5675 271.493 22.045 272.834 22.045C273.688 22.045 274.392 21.9193 274.945 21.668C275.498 21.3999 275.933 21.0313 276.252 20.5622C276.587 20.0931 276.821 19.5402 276.955 18.9035C277.106 18.25 277.182 17.5547 277.182 16.8175V15.9379C277.182 14.7986 277.048 13.8352 276.78 13.0477C276.511 12.2602 276.067 11.6571 275.448 11.2382C274.844 10.8193 274.032 10.6099 273.01 10.6099ZM288.985 9.37841C290.509 9.37841 291.674 9.77215 292.478 10.5596C293.282 11.3471 293.684 12.5869 293.684 14.2792V23H292.277V14.3546C292.277 13.0645 291.984 12.1178 291.397 11.5146C290.811 10.9115 289.948 10.6099 288.809 10.6099C287.351 10.6099 286.253 11.0371 285.516 11.8916C284.779 12.7461 284.41 14.0195 284.41 15.7117V23H283.003V9.62973H284.134L284.36 11.9419H284.436C284.687 11.456 285.022 11.0204 285.441 10.635C285.86 10.2497 286.362 9.94807 286.949 9.73026C287.552 9.4957 288.231 9.37841 288.985 9.37841ZM303.378 4.77924C304.216 4.77924 304.936 4.93004 305.54 5.23162C306.16 5.53321 306.637 5.96045 306.972 6.51336C307.324 7.06626 307.5 7.73645 307.5 8.52392C307.5 9.62973 307.131 10.5512 306.394 11.2885C305.674 12.0089 304.727 12.6791 303.554 13.299L309.058 18.7527C309.527 18.183 309.929 17.5296 310.265 16.7924C310.6 16.0552 310.868 15.2593 311.069 14.4048H312.501C312.25 15.4436 311.915 16.407 311.496 17.295C311.077 18.183 310.566 18.9789 309.963 19.6826L313.28 23H311.37L309.033 20.6125C308.631 20.9978 308.212 21.358 307.776 21.6931C307.358 22.0115 306.897 22.2879 306.394 22.5225C305.892 22.7403 305.339 22.9162 304.735 23.0503C304.149 23.1843 303.496 23.2513 302.775 23.2513C301.653 23.2513 300.672 23.067 299.835 22.6984C299.014 22.3298 298.369 21.7853 297.9 21.0648C297.43 20.3444 297.196 19.4648 297.196 18.426C297.196 17.5212 297.363 16.7589 297.698 16.1389C298.034 15.519 298.519 14.9661 299.156 14.4802C299.793 13.9943 300.555 13.5252 301.443 13.0728C300.974 12.5702 300.555 12.0927 300.187 11.6403C299.818 11.1879 299.525 10.7188 299.307 10.2329C299.106 9.73026 299.005 9.18573 299.005 8.59932C299.005 7.81185 299.181 7.13328 299.533 6.56362C299.902 5.99396 300.413 5.55834 301.066 5.25675C301.72 4.93841 302.49 4.77924 303.378 4.77924ZM302.323 13.9776C301.552 14.3629 300.89 14.7567 300.337 15.1588C299.801 15.5609 299.391 16.0133 299.106 16.5159C298.821 17.0186 298.679 17.6385 298.679 18.3757C298.679 19.4983 299.056 20.3779 299.81 21.0146C300.564 21.6512 301.56 21.9696 302.8 21.9696C304.04 21.9696 305.071 21.7602 305.892 21.3413C306.729 20.9224 307.466 20.3863 308.103 19.7328L302.323 13.9776ZM303.353 5.98558C302.448 5.98558 301.728 6.22015 301.192 6.68928C300.672 7.15841 300.413 7.79509 300.413 8.59932C300.413 9.28626 300.605 9.91456 300.991 10.4842C301.376 11.0539 301.921 11.6989 302.624 12.4194C303.764 11.8665 304.627 11.2968 305.213 10.7104C305.799 10.1072 306.093 9.37841 306.093 8.52392C306.093 7.7532 305.841 7.14166 305.339 6.68928C304.853 6.22015 304.191 5.98558 303.353 5.98558ZM232.701 47.8519C232.701 49.8625 232.34 51.5463 231.62 52.9035C230.916 54.2606 229.869 55.2826 228.478 55.9696C227.105 56.6565 225.396 57 223.351 57H218.928V39.0557H223.904C225.798 39.0557 227.398 39.3908 228.705 40.061C230.011 40.7312 231 41.7197 231.67 43.0266C232.357 44.3334 232.701 45.9419 232.701 47.8519ZM231.193 47.9022C231.193 46.21 230.916 44.8109 230.363 43.7051C229.81 42.5826 228.973 41.7448 227.85 41.1919C226.728 40.6223 225.32 40.3374 223.628 40.3374H220.386V55.7183H223.251C225.915 55.7183 227.9 55.0732 229.207 53.7831C230.531 52.4762 231.193 50.5159 231.193 47.9022ZM241.546 43.3784C242.702 43.3784 243.657 43.6465 244.411 44.1826C245.181 44.702 245.759 45.4225 246.145 46.344C246.547 47.2655 246.748 48.3294 246.748 49.5358V50.4908H237.198C237.198 52.2835 237.608 53.6491 238.429 54.5873C239.267 55.5256 240.448 55.9947 241.973 55.9947C242.811 55.9947 243.539 55.9277 244.159 55.7937C244.779 55.6596 245.458 55.4251 246.195 55.09V56.3968C245.525 56.6984 244.863 56.9162 244.21 57.0503C243.556 57.1843 242.794 57.2513 241.923 57.2513C240.599 57.2513 239.468 56.9749 238.53 56.422C237.608 55.8691 236.904 55.0816 236.419 54.0595C235.949 53.0208 235.715 51.8144 235.715 50.4405C235.715 49.0666 235.941 47.8519 236.393 46.7964C236.846 45.7408 237.508 44.9115 238.379 44.3083C239.25 43.6884 240.306 43.3784 241.546 43.3784ZM241.546 44.5848C240.306 44.5848 239.309 44.9952 238.555 45.8162C237.801 46.6205 237.357 47.7849 237.223 49.3096H245.265C245.265 48.3713 245.131 47.5503 244.863 46.8466C244.595 46.1429 244.184 45.59 243.632 45.1879C243.095 44.7858 242.4 44.5848 241.546 44.5848ZM252.785 57L247.658 43.6297H249.166L252.484 52.5014C252.634 52.87 252.769 53.2386 252.886 53.6072C253.02 53.9758 253.137 54.3276 253.238 54.6627C253.338 54.9811 253.422 55.2826 253.489 55.5675H253.564C253.648 55.2826 253.74 54.9727 253.841 54.6376C253.958 54.3025 254.084 53.9506 254.218 53.582C254.352 53.2134 254.478 52.8532 254.595 52.5014L257.912 43.6297H259.445L254.318 57H252.785ZM266.702 43.3784C267.858 43.3784 268.813 43.6465 269.567 44.1826C270.338 44.702 270.916 45.4225 271.301 46.344C271.703 47.2655 271.905 48.3294 271.905 49.5358V50.4908H262.354C262.354 52.2835 262.765 53.6491 263.586 54.5873C264.424 55.5256 265.605 55.9947 267.129 55.9947C267.967 55.9947 268.696 55.9277 269.316 55.7937C269.936 55.6596 270.614 55.4251 271.352 55.09V56.3968C270.681 56.6984 270.02 56.9162 269.366 57.0503C268.713 57.1843 267.95 57.2513 267.079 57.2513C265.756 57.2513 264.625 56.9749 263.686 56.422C262.765 55.8691 262.061 55.0816 261.575 54.0595C261.106 53.0208 260.872 51.8144 260.872 50.4405C260.872 49.0666 261.098 47.8519 261.55 46.7964C262.002 45.7408 262.664 44.9115 263.536 44.3083C264.407 43.6884 265.462 43.3784 266.702 43.3784ZM266.702 44.5848C265.462 44.5848 264.465 44.9952 263.711 45.8162C262.957 46.6205 262.513 47.7849 262.379 49.3096H270.422C270.422 48.3713 270.288 47.5503 270.02 46.8466C269.752 46.1429 269.341 45.59 268.788 45.1879C268.252 44.7858 267.557 44.5848 266.702 44.5848ZM276.95 57H275.517V37.8996H276.95V57ZM292.542 50.3149C292.542 51.3537 292.408 52.3003 292.14 53.1548C291.889 53.9925 291.504 54.7214 290.984 55.3413C290.482 55.9445 289.853 56.4136 289.099 56.7487C288.345 57.0838 287.483 57.2513 286.511 57.2513C285.589 57.2513 284.76 57.0922 284.023 56.7738C283.302 56.4387 282.682 55.9696 282.163 55.3664C281.644 54.7465 281.25 54.0093 280.982 53.1548C280.714 52.3003 280.58 51.3537 280.58 50.3149C280.58 48.8572 280.814 47.6174 281.283 46.5953C281.769 45.5565 282.464 44.7607 283.369 44.2078C284.291 43.6549 285.38 43.3784 286.636 43.3784C287.91 43.3784 288.982 43.6716 289.853 44.258C290.741 44.8277 291.412 45.6319 291.864 46.6707C292.316 47.7095 292.542 48.9242 292.542 50.3149ZM282.062 50.3149C282.062 51.4542 282.222 52.4595 282.54 53.3307C282.858 54.1852 283.352 54.847 284.023 55.3162C284.693 55.7853 285.531 56.0198 286.536 56.0198C287.575 56.0198 288.429 55.7853 289.099 55.3162C289.77 54.8303 290.264 54.1601 290.582 53.3056C290.9 52.4343 291.06 51.4374 291.06 50.3149C291.06 49.1923 290.909 48.2038 290.607 47.3493C290.306 46.4948 289.828 45.8246 289.175 45.3387C288.521 44.8528 287.667 44.6099 286.611 44.6099C285.087 44.6099 283.947 45.1125 283.193 46.1178C282.439 47.1231 282.062 48.5221 282.062 50.3149ZM302.164 43.3784C303.873 43.3784 305.205 43.9565 306.16 45.1125C307.132 46.2686 307.618 47.9776 307.618 50.2395C307.618 51.7474 307.392 53.0291 306.939 54.0847C306.487 55.1235 305.842 55.9109 305.004 56.4471C304.183 56.9832 303.195 57.2513 302.038 57.2513C301.251 57.2513 300.564 57.134 299.978 56.8995C299.391 56.6649 298.905 56.3549 298.52 55.9696C298.135 55.5842 297.833 55.157 297.615 54.6878H297.515C297.548 55.1067 297.573 55.5675 297.59 56.0701C297.607 56.556 297.615 57.0084 297.615 57.4272V62.9312H296.183V43.6297H297.364L297.54 46.1429H297.615C297.833 45.6571 298.143 45.2047 298.545 44.7858C298.947 44.3669 299.441 44.0318 300.028 43.7805C300.631 43.5125 301.343 43.3784 302.164 43.3784ZM301.963 44.6099C300.975 44.6099 300.162 44.8193 299.525 45.2382C298.889 45.6571 298.411 46.277 298.093 47.098C297.774 47.9022 297.615 48.8991 297.615 50.0887V50.34C297.615 51.5966 297.766 52.6522 298.068 53.5066C298.386 54.3444 298.855 54.9727 299.475 55.3915C300.112 55.8104 300.908 56.0198 301.863 56.0198C302.801 56.0198 303.58 55.7937 304.2 55.3413C304.836 54.8722 305.314 54.2103 305.632 53.3558C305.967 52.4846 306.135 51.4458 306.135 50.2395C306.135 48.4132 305.792 47.0226 305.105 46.0675C304.418 45.0958 303.37 44.6099 301.963 44.6099ZM325.176 43.3784C326.516 43.3784 327.555 43.7554 328.292 44.5094C329.046 45.2633 329.423 46.4529 329.423 48.0781V57H327.991V48.1284C327.991 46.9388 327.723 46.0592 327.186 45.4895C326.65 44.9031 325.921 44.6099 325 44.6099C323.71 44.6099 322.721 44.9869 322.034 45.7408C321.364 46.478 321.029 47.6257 321.029 49.1839V57H319.597V48.1284C319.597 47.3241 319.471 46.6623 319.22 46.1429C318.985 45.6235 318.642 45.2382 318.189 44.9869C317.754 44.7355 317.217 44.6099 316.581 44.6099C315.743 44.6099 315.031 44.7858 314.444 45.1377C313.858 45.4895 313.406 46.0173 313.087 46.721C312.786 47.4247 312.635 48.3211 312.635 49.4101V57H311.228V43.6297H312.359L312.585 45.766H312.66C312.895 45.3136 313.196 44.9115 313.565 44.5596C313.95 44.2078 314.411 43.9229 314.947 43.7051C315.483 43.4873 316.095 43.3784 316.782 43.3784C317.77 43.3784 318.6 43.5878 319.27 44.0067C319.94 44.4256 320.409 45.0539 320.677 45.8916H320.778C321.163 45.0874 321.733 44.4675 322.487 44.0318C323.257 43.5962 324.154 43.3784 325.176 43.3784ZM338.711 43.3784C339.868 43.3784 340.823 43.6465 341.577 44.1826C342.347 44.702 342.925 45.4225 343.311 46.344C343.713 47.2655 343.914 48.3294 343.914 49.5358V50.4908H334.364C334.364 52.2835 334.774 53.6491 335.595 54.5873C336.433 55.5256 337.614 55.9947 339.139 55.9947C339.976 55.9947 340.705 55.9277 341.325 55.7937C341.945 55.6596 342.624 55.4251 343.361 55.09V56.3968C342.691 56.6984 342.029 56.9162 341.375 57.0503C340.722 57.1843 339.96 57.2513 339.088 57.2513C337.765 57.2513 336.634 56.9749 335.696 56.422C334.774 55.8691 334.07 55.0816 333.585 54.0595C333.115 53.0208 332.881 51.8144 332.881 50.4405C332.881 49.0666 333.107 47.8519 333.559 46.7964C334.012 45.7408 334.674 44.9115 335.545 44.3083C336.416 43.6884 337.472 43.3784 338.711 43.3784ZM338.711 44.5848C337.472 44.5848 336.475 44.9952 335.721 45.8162C334.967 46.6205 334.523 47.7849 334.389 49.3096H342.431C342.431 48.3713 342.297 47.5503 342.029 46.8466C341.761 46.1429 341.35 45.59 340.797 45.1879C340.261 44.7858 339.566 44.5848 338.711 44.5848ZM353.508 43.3784C355.033 43.3784 356.197 43.7721 357.002 44.5596C357.806 45.3471 358.208 46.5869 358.208 48.2792V57H356.8V48.3546C356.8 47.0645 356.507 46.1178 355.921 45.5146C355.334 44.9115 354.472 44.6099 353.332 44.6099C351.875 44.6099 350.777 45.0371 350.04 45.8916C349.303 46.7461 348.934 48.0195 348.934 49.7117V57H347.527V43.6297H348.658L348.884 45.9419H348.959C349.211 45.456 349.546 45.0204 349.965 44.635C350.383 44.2497 350.886 43.9481 351.472 43.7303C352.076 43.4957 352.754 43.3784 353.508 43.3784ZM366.243 56.045C366.612 56.045 366.964 56.0198 367.299 55.9696C367.634 55.9026 367.927 55.8272 368.178 55.7434V56.8995C367.927 57 367.609 57.0838 367.223 57.1508C366.855 57.2178 366.461 57.2513 366.042 57.2513C365.305 57.2513 364.677 57.1173 364.157 56.8492C363.638 56.5644 363.236 56.1288 362.951 55.5423C362.683 54.9559 362.549 54.202 362.549 53.2805V44.7858H360.589V43.9816L362.549 43.5292L363.077 40.438H363.981V43.6297H368.103V44.7858H363.981V53.2302C363.981 54.1517 364.166 54.8554 364.534 55.3413C364.903 55.8104 365.473 56.045 366.243 56.045ZM228.855 86.3506C228.855 87.4229 228.587 88.3276 228.051 89.0648C227.532 89.7853 226.803 90.3298 225.865 90.6984C224.926 91.067 223.863 91.2513 222.673 91.2513C221.936 91.2513 221.274 91.2094 220.687 91.1257C220.101 91.0586 219.565 90.9749 219.079 90.8743C218.593 90.7571 218.158 90.623 217.772 90.4722V89.0146C218.409 89.2659 219.146 89.4921 219.984 89.6931C220.822 89.8774 221.743 89.9696 222.748 89.9696C223.67 89.9696 224.474 89.8355 225.161 89.5675C225.865 89.2994 226.409 88.9057 226.795 88.3863C227.197 87.8669 227.398 87.2134 227.398 86.426C227.398 85.7055 227.23 85.1191 226.895 84.6667C226.577 84.2143 226.074 83.8206 225.387 83.4855C224.717 83.1337 223.854 82.7818 222.799 82.43C222.045 82.1619 221.366 81.8854 220.763 81.6006C220.176 81.3158 219.674 80.9807 219.255 80.5953C218.836 80.21 218.518 79.7576 218.3 79.2382C218.082 78.7188 217.973 78.0905 217.973 77.3533C217.973 76.3648 218.225 75.5354 218.727 74.8652C219.23 74.195 219.908 73.684 220.763 73.3321C221.634 72.9803 222.614 72.8044 223.703 72.8044C224.575 72.8044 225.404 72.8881 226.191 73.0557C226.979 73.2065 227.724 73.4411 228.428 73.7594L227.951 75.016C227.247 74.7144 226.535 74.4882 225.814 74.3374C225.094 74.1866 224.374 74.1112 223.653 74.1112C222.815 74.1112 222.078 74.2369 221.441 74.4882C220.822 74.7228 220.336 75.083 219.984 75.5689C219.632 76.038 219.456 76.6245 219.456 77.3281C219.456 78.0989 219.624 78.7188 219.959 79.1879C220.294 79.6571 220.78 80.0508 221.416 80.3691C222.053 80.6707 222.832 80.9807 223.754 81.299C224.809 81.6676 225.714 82.0614 226.468 82.4802C227.239 82.8823 227.825 83.385 228.227 83.9881C228.646 84.5913 228.855 85.3788 228.855 86.3506ZM236.116 90.045C236.485 90.045 236.836 90.0198 237.172 89.9696C237.507 89.9026 237.8 89.8272 238.051 89.7434V90.8995C237.8 91 237.482 91.0838 237.096 91.1508C236.728 91.2178 236.334 91.2513 235.915 91.2513C235.178 91.2513 234.549 91.1173 234.03 90.8492C233.511 90.5644 233.109 90.1288 232.824 89.5423C232.556 88.9559 232.422 88.202 232.422 87.2805V78.7858H230.461V77.9816L232.422 77.5292L232.949 74.438H233.854V77.6297H237.976V78.7858H233.854V87.2302C233.854 88.1517 234.038 88.8554 234.407 89.3413C234.776 89.8104 235.345 90.045 236.116 90.045ZM251.418 77.6297V91H250.236L250.035 88.713H249.96C249.725 89.1989 249.39 89.6345 248.955 90.0198C248.536 90.4052 248.033 90.7068 247.447 90.9246C246.86 91.1424 246.182 91.2513 245.411 91.2513C244.372 91.2513 243.501 91.0754 242.797 90.7235C242.11 90.3549 241.591 89.8104 241.239 89.09C240.887 88.3695 240.711 87.4731 240.711 86.4008V77.6297H242.144V86.2752C242.144 87.5485 242.429 88.4952 242.998 89.1151C243.585 89.7183 244.439 90.0198 245.562 90.0198C246.55 90.0198 247.371 89.8355 248.025 89.4669C248.678 89.0816 249.164 88.5119 249.482 87.758C249.817 87.004 249.985 86.0657 249.985 84.9432V77.6297H251.418ZM260.634 91.2513C258.841 91.2513 257.459 90.6817 256.487 89.5423C255.532 88.3863 255.055 86.694 255.055 84.4657C255.055 82.1535 255.557 80.3943 256.563 79.1879C257.585 77.9816 258.984 77.3784 260.76 77.3784C261.514 77.3784 262.167 77.4957 262.72 77.7303C263.273 77.9481 263.742 78.2497 264.128 78.635C264.53 79.0204 264.84 79.456 265.057 79.9419H265.158C265.141 79.5398 265.116 79.1041 265.083 78.635C265.066 78.1491 265.057 77.7135 265.057 77.3281V71.8996H266.49V91H265.334L265.133 88.6627H265.057C264.823 89.1318 264.513 89.5675 264.128 89.9696C263.742 90.3549 263.265 90.6649 262.695 90.8995C262.125 91.134 261.438 91.2513 260.634 91.2513ZM260.81 90.0198C262.368 90.0198 263.466 89.5507 264.102 88.6125C264.756 87.6742 265.083 86.3171 265.083 84.5411V84.3149C265.083 82.4718 264.756 81.0645 264.102 80.0927C263.466 79.1041 262.402 78.6099 260.911 78.6099C259.47 78.6099 258.381 79.1209 257.643 80.1429C256.906 81.1482 256.538 82.5975 256.538 84.4908C256.538 86.3003 256.889 87.6742 257.593 88.6125C258.297 89.5507 259.369 90.0198 260.81 90.0198ZM272.286 77.6297V91H270.879V77.6297H272.286ZM271.583 72.6787C271.901 72.6787 272.144 72.7792 272.311 72.9803C272.479 73.1646 272.563 73.4243 272.563 73.7594C272.563 74.1112 272.479 74.3877 272.311 74.5888C272.144 74.7731 271.901 74.8652 271.583 74.8652C271.281 74.8652 271.046 74.7731 270.879 74.5888C270.711 74.3877 270.627 74.1112 270.627 73.7594C270.627 73.4243 270.711 73.1646 270.879 72.9803C271.046 72.7792 271.281 72.6787 271.583 72.6787ZM287.904 84.3149C287.904 85.3537 287.77 86.3003 287.502 87.1548C287.25 87.9925 286.865 88.7214 286.346 89.3413C285.843 89.9445 285.215 90.4136 284.461 90.7487C283.707 91.0838 282.844 91.2513 281.872 91.2513C280.951 91.2513 280.121 91.0922 279.384 90.7738C278.664 90.4387 278.044 89.9696 277.524 89.3664C277.005 88.7465 276.611 88.0093 276.343 87.1548C276.075 86.3003 275.941 85.3537 275.941 84.3149C275.941 82.8572 276.176 81.6174 276.645 80.5953C277.131 79.5565 277.826 78.7607 278.731 78.2078C279.652 77.6549 280.741 77.3784 281.998 77.3784C283.271 77.3784 284.343 77.6716 285.215 78.258C286.103 78.8277 286.773 79.6319 287.225 80.6707C287.678 81.7095 287.904 82.9242 287.904 84.3149ZM277.424 84.3149C277.424 85.4542 277.583 86.4595 277.901 87.3307C278.22 88.1852 278.714 88.847 279.384 89.3162C280.054 89.7853 280.892 90.0198 281.897 90.0198C282.936 90.0198 283.791 89.7853 284.461 89.3162C285.131 88.8303 285.625 88.1601 285.944 87.3056C286.262 86.4343 286.421 85.4374 286.421 84.3149C286.421 83.1923 286.27 82.2038 285.969 81.3493C285.667 80.4948 285.19 79.8246 284.536 79.3387C283.883 78.8528 283.028 78.6099 281.973 78.6099C280.448 78.6099 279.309 79.1125 278.555 80.1178C277.801 81.1231 277.424 82.5221 277.424 84.3149Z" fill="#191919"/>
</svg>
