<svg width="796" height="94" viewBox="0 0 796 94" fill="none" xmlns="http://www.w3.org/2000/svg">
<path d="M682.065 0.0898438V33.9186H650.716V36.9599H682.065V56.9858H650.716V60.0271H682.065V93.8558H603.991V0.0898438H682.065Z" fill="#191919"/>
<path d="M190.767 0.142578V33.9713H159.419V37.0594H190.767V57.0385H159.419V60.1266H190.767V93.9554H112.693V0.142578H190.767Z" fill="#191919"/>
<path d="M101.055 68.874C100.545 57.6914 92.1768 48.5206 81.0901 46.4151C81.7697 46.2747 82.4494 46.0876 83.129 45.9004C92.729 42.9995 99.7378 34.0627 99.7378 23.4415C99.7378 17.1717 97.2741 11.5102 93.3237 7.29916C93.3237 7.29916 93.2812 7.25236 93.2387 7.20557C88.9909 2.76058 83.0865 0 76.46 0C75.9927 0 0 0 0 0V93.766H74.8458C74.8458 93.766 75.1857 93.766 75.3556 93.766C75.6954 93.766 76.0352 93.8128 76.375 93.8128C83.4263 93.8128 89.7555 90.9586 94.2582 86.3733C94.6405 85.9989 95.0228 85.6246 95.3626 85.2035C95.4475 85.1099 95.49 85.0632 95.575 84.9696C95.9998 84.4549 96.4246 83.9402 96.8069 83.3787C96.9768 83.1448 97.1466 82.9109 97.2741 82.6301C97.4865 82.3026 97.6564 82.0218 97.8688 81.6943C99.9502 78.1851 101.14 74.1612 101.14 69.8566C101.14 69.5291 101.14 69.1548 101.097 68.8272L101.055 68.874ZM53.9043 59.4226H47.2778V56.3345H53.9043V59.4226ZM53.9043 37.0104H47.2778V33.9223H53.9043V37.0104Z" fill="#191919"/>
<path d="M366.328 28.4023H319.603V93.8607H366.328V28.4023Z" fill="#191919"/>
<path d="M366.328 0.0898438H319.603V25.3094H366.328V0.0898438Z" fill="#191919"/>
<path d="M545.117 0.0898438H544.268V21.8002L536.707 0.0898438H493.337V60.0739V93.8558H540.062V70.7419L548.048 93.8558H590.993V33.8718V0.0898438H545.117Z" fill="#191919"/>
<path d="M790.046 20.0727C781.975 5.14692 765.664 1.02945 750.882 0.046875H694.811V93.8129H751.179C766.344 92.7835 783.037 89.0872 790.896 73.2255C797.82 59.2355 797.437 33.782 790.046 20.0727ZM744.34 59.8438H741.537V33.9692H744.34V59.8438Z" fill="#191919"/>
<path d="M480.596 42.9063V38.976H430.132V54.978H433.828V57.9725H427.413V35.9815H431.024H431.916H480.596C480.596 35.3265 480.596 34.7182 480.596 34.1099C480.596 33.642 480.596 33.1741 480.596 32.753V24.2842C480.596 10.996 470.826 0.234375 458.762 0.234375H399.93C387.867 0.234375 378.097 10.996 378.097 24.2842V69.857C378.097 83.1452 387.867 93.9068 399.93 93.9068H480.638V42.9531L480.596 42.9063Z" fill="#191919"/>
<path d="M306.777 54.1357C306.777 54.1357 306.777 53.855 306.777 53.7614C306.564 51.5155 306.054 49.3632 305.29 47.3512C305.205 47.1641 305.162 46.9769 305.077 46.7898C304.993 46.509 304.865 46.2751 304.738 46.0411C301.212 37.9934 293.736 32.3786 285.07 32.3786H283.711C283.711 32.3786 283.669 32.3786 283.626 32.3786C283.499 32.3786 258.479 32.3786 258.14 32.3318H257.97V29.2437H306.904C306.904 29.2437 306.904 23.6758 306.904 23.629C306.904 23.5822 306.904 23.629 306.904 23.5822V23.3015C306.819 19.6519 305.97 16.1895 304.398 13.1482C303.378 11.0894 302.019 9.17108 300.447 7.48666C300.447 7.48666 300.405 7.43986 300.362 7.39308C296.667 3.55634 291.697 0.936125 286.132 0.327863C285.283 0.234284 284.433 0.1875 283.584 0.1875C283.499 0.1875 227.046 0.327863 227.046 0.327863H226.621C220.037 0.327863 214.09 3.08844 209.842 7.53344C209.842 7.53344 209.8 7.58023 209.757 7.62702C208.653 8.79675 207.676 10.1069 206.826 11.4637C204.66 15.2069 203.386 19.6051 203.386 24.3776V34.2034C203.386 37.3383 203.938 40.2861 204.915 43.0466C205.255 43.9356 205.595 44.7778 206.019 45.62C209.715 53.1531 216.894 58.2532 225.219 58.2532C225.219 58.2532 251.556 58.3936 251.81 58.3936V61.4348H203.683V69.9505C203.683 83.2387 213.453 94.0003 225.517 94.0003H284.986C297.049 94.0003 306.819 83.2387 306.819 69.9505V55.8201C306.819 55.399 306.734 54.2761 306.734 54.1357H306.777Z" fill="#191919"/>
</svg>
